<svg xmlns="http://www.w3.org/2000/svg" width="30" height="29.895" viewBox="0 0 30 29.895">
  <path id="Caminho_8" data-name="Caminho 8" d="M29.291,17.56a1.054,1.054,0,0,0-.882.192A11.248,11.248,0,0,1,25,19.745a10.685,10.685,0,0,1-3.872.69A11.257,11.257,0,0,1,9.853,9.164a11.816,11.816,0,0,1,.613-3.719,10.294,10.294,0,0,1,1.84-3.3.979.979,0,0,0-.153-1.38,1.054,1.054,0,0,0-.882-.192A15.471,15.471,0,0,0,3.144,6.02a15.177,15.177,0,1,0,26.8,12.767A.909.909,0,0,0,29.291,17.56Zm-5.866,8.013A13.2,13.2,0,0,1,2.07,15.221,12.964,12.964,0,0,1,4.792,7.208,13.181,13.181,0,0,1,9.2,3.528a13.243,13.243,0,0,0-.537,1.3A12.758,12.758,0,0,0,7.936,9.2,13.221,13.221,0,0,0,21.163,22.429a12.835,12.835,0,0,0,4.562-.805c.5-.192,1-.383,1.457-.613A13.949,13.949,0,0,1,23.425,25.573Z" transform="translate(0 -0.546)" fill="#707070"/>
</svg>
