<svg width="24" height="24" viewBox="0 0 24 24" fill="#191C20" xmlns="http://www.w3.org/2000/svg">
<g clip-path="url(#clip0_316_2)">
<path d="M23.4338 13.6112C23.3122 13.583 23.1858 13.5821 23.0638 13.6086C22.9417 13.6352 22.8271 13.6886 22.7282 13.7648C21.9203 14.4529 20.997 14.9927 20.001 15.3592C19.0116 15.7333 17.9612 15.9205 16.9034 15.9112C15.7187 15.9131 14.5451 15.6812 13.4501 15.2288C12.3551 14.7763 11.3602 14.1123 10.5222 13.2747C9.68433 12.437 9.01993 11.4423 8.56711 10.3475C8.1143 9.25263 7.88197 8.07919 7.88345 6.89441C7.88666 5.88282 8.05224 4.87831 8.37385 3.91921C8.69743 2.95593 9.1965 2.06085 9.84585 1.27921C9.91058 1.1988 9.95878 1.10639 9.98768 1.00729C10.0166 0.90819 10.0256 0.804355 10.0142 0.701756C10.0028 0.599158 9.97129 0.49982 9.92139 0.409456C9.87149 0.319092 9.80422 0.239483 9.72345 0.175208C9.62455 0.0989516 9.50995 0.0456148 9.38792 0.0190514C9.2659 -0.00751203 9.13949 -0.00663862 9.01785 0.0216085C6.43633 0.732612 4.15502 2.26163 2.51625 4.37921C1.41422 5.81446 0.646929 7.47789 0.2705 9.24783C-0.105929 11.0178 -0.0819807 12.8495 0.340594 14.609C0.763169 16.3685 1.57368 18.0113 2.71286 19.4172C3.85204 20.8232 5.29107 21.9567 6.9247 22.735C8.55834 23.5132 10.3453 23.9164 12.1548 23.9152C13.9643 23.914 15.7507 23.5083 17.3833 22.7278C19.0158 21.9473 20.4533 20.8118 21.5906 19.4043C22.7278 17.9968 23.5361 16.3529 23.9562 14.5928C23.9957 14.4945 24.0131 14.3888 24.0074 14.283C24.0017 14.1773 23.973 14.0741 23.9232 13.9806C23.8735 13.8871 23.8039 13.8056 23.7194 13.7418C23.6348 13.678 23.5374 13.6334 23.4338 13.6112V13.6112ZM18.741 20.0216C17.1846 21.2445 15.3158 22.0053 13.3478 22.2172C11.3798 22.4292 9.39182 22.0837 7.61067 21.2203C5.82953 20.3569 4.32692 19.0103 3.27423 17.334C2.22155 15.6578 1.66118 13.7194 1.65705 11.74C1.6454 9.41978 2.41214 7.16266 3.83465 5.32961C4.77948 4.10105 5.98351 3.09586 7.36105 2.38561C7.19952 2.72442 7.05612 3.07158 6.93145 3.42561C6.53501 4.54861 6.33817 5.73234 6.34985 6.92321C6.349 8.31312 6.62212 9.68956 7.15358 10.9738C7.68504 12.2581 8.46441 13.4251 9.44715 14.408C10.4299 15.3909 11.5967 16.1704 12.8809 16.7021C14.1651 17.2337 15.5415 17.507 16.9314 17.5064C18.177 17.5149 19.4136 17.2967 20.581 16.8624C20.981 16.7088 21.381 16.556 21.7466 16.372C21.0169 17.7892 19.9921 19.0337 18.741 20.0216V20.0216Z" />
</g>
<defs>
<clipPath id="clip0_316_2">
<rect width="24" height="23.916" fill="white"/>
</clipPath>
</defs>
</svg>
