<svg xmlns="http://www.w3.org/2000/svg" width="18" height="18">
  <path id="Caminho_10" data-name="Caminho 10" d="M122.832.98a2.455,2.455,0,0,0-3.471,0l-9.731,9.731a.545.545,0,0,0-.14.24l-1.28,4.62a.545.545,0,0,0,.671.671l4.62-1.28a.545.545,0,0,0,.24-.14l9.731-9.731a2.457,2.457,0,0,0,0-3.471ZM110.818,11.065,118.783,3.1l2.569,2.569-7.965,7.965Zm-.513,1.03,2.052,2.052-2.839.786ZM122.7,4.32l-.578.578-2.569-2.569.579-.578a1.364,1.364,0,0,1,1.928,0l.64.64A1.366,1.366,0,0,1,122.7,4.32Zm0,0" transform="translate(-108.19 -0.261)" fill="#fff"/>
</svg>
