<svg xmlns="http://www.w3.org/2000/svg" width="24" height="24"  viewBox="0 0 30 30" fill="#FFF">
  <g id="sun" transform="translate(0 -0.002)" >
    <path id="Caminho_3" data-name="Caminho 3" d="M29.691,20.182a6.806,6.806,0,0,1,0-10.361.88.88,0,0,0-.64-1.544A6.808,6.808,0,0,1,21.725.95a.88.88,0,0,0-1.544-.64A6.808,6.808,0,0,1,9.82.311.88.88,0,0,0,8.275.95,6.806,6.806,0,0,1,.949,8.277a.88.88,0,0,0-.64,1.544A6.805,6.805,0,0,1,2.7,15a6.805,6.805,0,0,1-2.392,5.18.88.88,0,0,0,.64,1.544,6.806,6.806,0,0,1,7.326,7.326.88.88,0,0,0,1.544.64,6.808,6.808,0,0,1,10.361,0,.88.88,0,0,0,1.544-.64,6.808,6.808,0,0,1,7.326-7.326A.88.88,0,0,0,29.691,20.182Zm-2.5-.132a8.563,8.563,0,0,0-7.14,7.14,8.563,8.563,0,0,0-10.1,0,8.563,8.563,0,0,0-7.14-7.14A8.552,8.552,0,0,0,4.459,15,8.553,8.553,0,0,0,2.812,9.953a8.563,8.563,0,0,0,7.14-7.14,8.563,8.563,0,0,0,10.1,0,8.563,8.563,0,0,0,7.14,7.14,8.563,8.563,0,0,0,0,10.1Z" transform="translate(0 0)"/>
    <path id="Caminho_4" data-name="Caminho 4" d="M120.237,112.237a8,8,0,1,0,8,8A8.009,8.009,0,0,0,120.237,112.237Zm0,14.331a6.331,6.331,0,1,1,6.331-6.331A6.338,6.338,0,0,1,120.237,126.568Z" transform="translate(-105.237 -105.235)"/>
  </g>
</svg>
