<svg xmlns="http://www.w3.org/2000/svg" width="18" height="18" fill="#fff">
  <path id="Caminho_11" data-name="Caminho 11" d="M13.027,3.576l-.353-1.059a.985.985,0,0,0-.936-.674H8.769V.876A.877.877,0,0,0,7.893,0H5.174A.877.877,0,0,0,4.3.876v.967H1.329a.985.985,0,0,0-.936.674L.04,3.576A.793.793,0,0,0,.792,4.619h.369l.813,10.05A1.454,1.454,0,0,0,3.415,16h6.4a1.454,1.454,0,0,0,1.441-1.33l.813-10.05h.2a.793.793,0,0,0,.752-1.044ZM5.236.937h2.6v.906h-2.6Zm5.088,13.657a.511.511,0,0,1-.506.468h-6.4a.511.511,0,0,1-.506-.468L2.1,4.619H11.13ZM.993,3.682l.29-.868a.049.049,0,0,1,.046-.033H11.738a.049.049,0,0,1,.046.033l.29.868Zm0,0" transform="translate(0 0)" />
</svg>
